<svg width="100%" height="100%" viewBox="0 0 300 300" xmlns="http://www.w3.org/2000/svg" preserveAspectRatio="xMidYMid slice">
  <defs>
    <!-- Cloud shape 1 -->
    <g id="cloud1" fill-opacity="0.6">
      <circle cx="0" cy="0" r="20" fill="#bbb"/>
      <circle cx="10" cy="-10" r="40" fill="#aaa"/>
      <circle cx="45" cy="10" r="18" fill="#ddd"/>
    </g>

    <!-- Cloud shape 2 -->
    <g id="cloud2" fill-opacity="0.5">
      <circle cx="20" cy="10" r="20" fill="#ccc"/>
      <circle cx="-20" cy="10" r="24" fill="#999"/>
      <circle cx="10" cy="50" r="50" fill="#eee"/>
    </g>

    <!-- Cloud shape 3 -->
    <g id="cloud3" fill-opacity="0.7">
      <circle cx="-10" cy="-20" r="45" fill="#aaa"/>
      <circle cx="10" cy="30" r="20" fill="#ccc"/>
      <circle cx="0" cy="-10" r="16" fill="#ddd"/>
    </g>
  </defs>
  <clipPath id="clip">
    <rect width="300" height="300" rx="0" ry="0" fill="#444"/>
  </clipPath>
  <rect width="300" height="300" rx="0" ry="0" fill="#444444"/>

  <!-- Individually looping clouds -->
  <g clip-path="url(#clip)">
  
    <use href="#cloud1" x="20" y="200">
      <animateTransform id="cloud1-animation1" attributeName="transform" type="translate"
        values="0 0; -150 150" dur="29s" repeatCount="indefinite" />
    </use>
    <use href="#cloud1" x="170" y="50">
      <animateTransform id="cloud1-animation1" attributeName="transform" type="translate"
        values="0 0; -150 150" dur="29s" repeatCount="indefinite" />
    </use>
    <use href="#cloud1" x="320" y="-100">
      <animateTransform id="cloud1-animation1" attributeName="transform" type="translate"
        values="0 0; -150 150" dur="29s" repeatCount="indefinite" />
    </use>
  </g>
  <g clip-path="url(#clip)">
    <use href="#cloud3" x="300" y="20">
      <animateTransform id="cloud3-animation1" attributeName="transform" type="translate"
          values="0 0; -150 150" dur="29s" repeatCount="indefinite" />
    </use>
    <use href="#cloud3" x="150" y="170">
      <animateTransform id="cloud3-animation1" attributeName="transform" type="translate"
          values="0 0; -150 150" dur="29s" repeatCount="indefinite" />
    </use>
    <use href="#cloud3" x="0" y="320">
      <animateTransform id="cloud3-animation1" attributeName="transform" type="translate"
          values="0 0; -150 150" dur="29s" repeatCount="indefinite" />
    </use>
  </g>
  <svg x="125" y="125" width="50" height="50" viewBox="174.698 175.288 528.72 557.824" preserveAspectRatio="xMidYMid meet">
    <g id="Layer">
      <g opacity="1">
        <path d="M565.021 252.186" fill="none" opacity="1" stroke="#007aff" stroke-linecap="butt" stroke-linejoin="round" stroke-width="9.68255"/>
        <path d="M174.772 327.015C170.624 394.501 342.533 513.478 358.71 508.098C374.887 502.719 414.583 489.507 430.372 502.688C446.161 515.87 428.199 547.248 442.521 574.514C456.843 601.78 635.804 754.707 674.488 730.532C713.172 706.357 710.713 208.905 681.02 180.068C651.326 151.231 178.92 259.529 174.772 327.015Z" fill="#36a66c" fill-rule="nonzero" opacity="1" stroke="none"/>
        <path d="M223.183 411.619C225.771 417.619 336.622 521.86 361.815 513.743C387.008 505.625 414.685 491.431 430.182 502.933C445.68 514.435 427.135 559.202 434.989 573.313C438.929 580.392 467.917 608.842 500.554 635.587C532.978 662.158 573.088 691.77 584.537 696.598C595.61 701.268 606.407 346.835 574.186 317.579C541.965 288.323 220.595 405.618 223.183 411.619Z" fill="#273648" fill-rule="nonzero" opacity="1" stroke="none"/>
        <g opacity="1">
          <path d="M440.411 380.929C433.56 381.042 426.706 383.321 420.547 386.927C411.838 392.026 404.465 399.419 398.724 407.671C395.356 412.511 392.494 417.746 390.52 423.313C389.201 427.034 388.269 430.923 388.043 434.874C387.886 437.599 388.07 440.354 388.724 443.009C389.108 444.571 389.652 446.099 390.369 447.54C395.806 458.483 409.701 460.928 420.683 462.16C422.555 462.37 424.431 462.553 426.309 462.7C429.289 462.933 432.275 463.097 435.261 463.219C438.943 463.369 442.625 463.452 446.309 463.507C451.242 463.58 456.174 463.598 461.107 463.617C463.042 463.624 464.977 463.65 466.912 463.659C468.522 477.122 470.156 490.585 473.213 503.8C475.97 515.718 480.143 528.385 489.693 536.613C490.583 537.376 491.597 537.894 492.653 538.206C494.159 539.186 495.735 540.044 497.436 540.699C507.683 544.646 518.637 540.995 527.127 534.796C535.588 528.617 542.32 520.05 547.163 510.814C550.523 504.407 553.07 497.494 554.083 490.306C555.513 480.164 553.472 469.288 545.608 462.155C541.87 458.765 537.162 456.568 532.449 454.89C524.035 451.894 515.09 450.558 506.236 449.688C497.9 448.869 489.535 448.509 481.165 448.331C480.715 444.909 480.25 441.49 479.725 438.08C478.149 427.856 476.254 417.55 472.705 407.802C470.29 401.167 467.011 394.614 461.967 389.572C460.196 387.802 458.219 386.249 456.058 384.984C451.067 382.06 445.739 380.841 440.411 380.929ZM440.84 396.833C444.414 396.845 447.869 398.003 450.678 400.835C454.041 404.225 456.079 408.829 457.682 413.255C460.46 420.928 462.03 429.031 463.35 437.063C463.955 440.748 464.477 444.45 464.973 448.153C457.793 448.117 450.613 448.088 443.444 447.917C436.433 447.751 429.413 447.457 422.443 446.655C417.658 446.104 412.68 445.363 408.205 443.496C407.061 443.019 405.853 442.48 405.036 441.511C403.74 439.974 403.614 437.706 403.732 435.796C403.974 431.841 405.398 427.972 407.105 424.434C410.509 417.378 415.511 410.962 421.416 405.827C424.753 402.925 428.429 400.354 432.522 398.635C435.21 397.505 438.06 396.823 440.84 396.833ZM483.109 463.826C489.838 463.972 496.572 464.231 503.276 464.827C511.03 465.516 518.905 466.538 526.325 468.986C529.435 470.012 532.862 471.267 535.335 473.496C539.845 477.561 539.718 484.536 538.656 490.013C536.384 501.735 528.898 513.828 519.641 521.328C515.363 524.794 509.154 528.527 503.423 526.666C502.696 526.43 502.025 526.108 501.385 525.728C501.033 525.253 500.638 524.804 500.17 524.403C496.441 521.227 494.201 516.748 492.464 512.244C489.587 504.784 487.983 496.854 486.634 488.997C485.2 480.644 484.138 472.237 483.109 463.826Z" fill="#ffffff" stroke="none"/>
        </g>
      </g>
    </g>
  </svg>
</svg>
